<svg width="106" height="106" viewBox="0 0 106 106" fill="none" xmlns="http://www.w3.org/2000/svg">
<path d="M39.51 48.2899C42.983 48.2899 46.378 47.2601 49.2658 45.3305C52.1535 43.401 54.4042 40.6585 55.7333 37.4499C57.0624 34.2412 57.4101 30.7104 56.7325 27.3041C56.055 23.8978 54.3826 20.7689 51.9267 18.3131C49.4709 15.8573 46.342 14.1849 42.9357 13.5073C39.5294 12.8298 35.9987 13.1775 32.79 14.5066C29.5814 15.8357 26.8389 18.0864 24.9093 20.9741C22.9798 23.8618 21.95 27.2569 21.95 30.7299C21.95 35.3871 23.8 39.8536 27.0932 43.1467C30.3863 46.4399 34.8527 48.2899 39.51 48.2899Z" fill="url(#paint0_linear_519_27)"/>
<path d="M74.63 57.0699C77.2347 57.0699 79.781 56.2975 81.9468 54.8504C84.1126 53.4032 85.8006 51.3464 86.7975 48.9399C87.7943 46.5334 88.0551 43.8853 87.5469 41.3306C87.0387 38.7759 85.7844 36.4292 83.9426 34.5873C82.1007 32.7455 79.754 31.4912 77.1993 30.983C74.6446 30.4748 71.9965 30.7356 69.59 31.7324C67.1835 32.7292 65.1266 34.4173 63.6795 36.5831C62.2324 38.7489 61.46 41.2951 61.46 43.8999C61.46 47.3928 62.8475 50.7427 65.3174 53.2125C67.7872 55.6824 71.1371 57.0699 74.63 57.0699Z" fill="url(#paint1_linear_519_27)"/>
<path d="M92.19 87.8002C93.3543 87.8002 94.471 87.3377 95.2942 86.5144C96.1175 85.6911 96.58 84.5745 96.58 83.4102C96.5765 79.3073 95.4231 75.2875 93.2507 71.8069C91.0783 68.3263 87.9738 65.5243 84.2896 63.7187C80.6053 61.9131 76.4887 61.1763 72.4069 61.5919C68.3251 62.0074 64.4415 63.5587 61.1966 66.0697C56.8967 61.7866 51.4247 58.8727 45.4709 57.6954C39.517 56.5182 33.3479 57.1303 27.7414 59.4546C22.135 61.7788 17.3423 65.7112 13.9679 70.7557C10.5934 75.8003 8.78824 81.7311 8.78003 87.8002C8.78003 88.9645 9.24255 90.0811 10.0658 90.9044C10.8891 91.7277 12.0057 92.1902 13.17 92.1902H65.85C67.0143 92.1902 68.1309 91.7277 68.9542 90.9044C69.7775 90.0811 70.24 88.9645 70.24 87.8002" fill="url(#paint2_linear_519_27)"/>
<defs>
<linearGradient id="paint0_linear_519_27" x1="15.7833" y1="33.6699" x2="59.2833" y2="33.6699" gradientUnits="userSpaceOnUse">
<stop stop-color="#00FF19"/>
<stop offset="1" stop-color="#F7A221"/>
</linearGradient>
<linearGradient id="paint1_linear_519_27" x1="56.835" y1="46.1049" x2="89.46" y2="46.1049" gradientUnits="userSpaceOnUse">
<stop stop-color="#00FF19"/>
<stop offset="1" stop-color="#F7A221"/>
</linearGradient>
<linearGradient id="paint2_linear_519_27" x1="-6.63664" y1="77.5875" x2="102.113" y2="77.5875" gradientUnits="userSpaceOnUse">
<stop stop-color="#00FF19"/>
<stop offset="1" stop-color="#F7A221"/>
</linearGradient>
</defs>
</svg>
